<svg id="Logo" xmlns="http://www.w3.org/2000/svg" xmlns:xlink="http://www.w3.org/1999/xlink" viewBox="0 0 2670.57 1236.63"><defs><style>.cls-1{fill:#fff;}.cls-2{fill:url(#New_Gradient_Swatch_1);}</style><linearGradient id="New_Gradient_Swatch_1" x1="170.43" y1="799.38" x2="423.23" y2="799.38" gradientUnits="userSpaceOnUse"><stop offset="0" stop-color="#8714df"/><stop offset="0.08" stop-color="#8f15de"/><stop offset="0.46" stop-color="#af18db"/><stop offset="0.78" stop-color="#c219da"/><stop offset="1" stop-color="#c91ad9"/></linearGradient></defs><title>untitled_design-BMySX4vu</title><g id="Quanthos_White"><g id="Quanthos_white-2" data-name="Quanthos_white"><g id="Quanthos_White-3" data-name="Quanthos_White"><path class="cls-1" d="M1535.43,671.48c-2.7,4.53-1.77,8.28-1.78,11.83q-.16,81-.17,162c0,13.77.28,11.92-11.73,12-7.33.06-14.67-.2-22,.12-5.16.23-7-1.67-7-6.87.21-15.33,0-30.66,0-46,0-57.65-.18-115.3.13-173a28.77,28.77,0,0,0-7.84-20.61c-7.47-8.43-14.23-17.49-21.08-26,1.56-3.72,4.25-2.62,6.34-2.64,12-.11,24,.15,36-.14,4.83-.12,8,1.66,11.05,5.25q53.33,62.9,106.86,125.63c19.84,23.37,39.5,46.89,59.28,70.3,1.64,1.94,3.05,4.25,7.08,5.85,0-4,0-7.16,0-10.33q0-92,0-184c0-1,0-2,0-3,.06-9.78.06-9.82,9.86-9.84,8,0,16-.06,24,.13,7,.16,7.17.29,7.32,7.52.24,11.33.2,22.66.2,34q0,110.47-.06,220.94c0,1.67,0,3.33,0,5-.27,7.48-.28,7.55-8,7.61-8.33.06-16.68-.32-25,.06-5.55.26-9.27-1.68-12.77-6q-29.11-35.59-58.64-70.84-42.27-50.65-84.71-101.16C1540.68,676.89,1538.32,674.58,1535.43,671.48Z" transform="translate(-170.43 -181.06)"/><path class="cls-1" d="M2210.62,729.76c-33.42,10.72-66.26,3.89-99.17-1-16.23-2.39-32.51-3.33-48.42,2.08-11.1,3.77-11.27,4-11.28,15.44q0,49.48,0,99c0,2.66,0,5.33-.13,8-.1,2.86-1.64,4.06-4.5,4-10.33-.1-20.66-.16-31-.11-4,0-5.29-2-5.1-5.62.09-1.66,0-3.33,0-5q-.09-125.95-.19-251.89c0-2,.15-4,0-6-.38-4.62,1.4-6.66,6.27-6.54,9.32.24,18.66.29,28,0,5.39-.17,7.12,2.25,6.83,7.17-.15,2.66,0,5.33,0,8q-.07,42-.11,84c0,3.63-.49,7.32.65,10.55a2.1,2.1,0,0,0,2.77.93c19.68-7.33,39.87-6.35,60.21-4,16.86,2,33.53,5.37,50.56,6.07,12.44.51,24.6-.5,36.43-4.56,9.64-3.31,9.78-3.29,9.81-13.22.06-26.65,0-53.31,0-80,0-2-.07-4,0-6,.1-8.61.11-8.7,9-8.84,8-.12,16-.15,24,0,7.53.17,7.7.31,7.73,8,.11,23.66.09,47.31.08,71q0,92-.1,183.92c0,13.74,1.11,12-12.51,12-6.66,0-13.33.09-20,0-7.76-.1-7.89-.16-8-7.63-.13-10.33-.05-20.66-.06-31q0-40.48-.08-81C2212.21,735.33,2212.56,733,2210.62,729.76Z" transform="translate(-170.43 -181.06)"/><path class="cls-1" d="M1165.92,675.92q0,37,0,74a123,123,0,0,1-5.29,37.46c-10,31.57-30.17,53.73-61.5,64.93-36.74,13.14-74,13.64-110.7.64-37.6-13.32-60.17-40.39-67.49-79.81a124.44,124.44,0,0,1-2.22-22.84q0-76.49-.05-153c0-3,.22-6,.07-9-.2-4.14,1.4-6.14,5.74-6.08,9.66.13,19.33.17,29,0,4.38-.06,5.92,2,5.78,6.11-.12,3.33,0,6.66,0,10q0,71.49-.07,143c0,10.72.67,21.37,4.18,31.56,8,23.31,23,39.32,47.71,45.2a140.12,140.12,0,0,0,60.46.78c35.85-7.12,51.84-35.35,53.09-64.85.9-21.29.33-42.65.34-64q0-48-.07-96c0-2.33.07-4.67,0-7-.06-3.32,1.5-4.85,4.82-4.84q15.49.08,31,.06c3.8,0,5.38,2,5.27,5.63,0,1.66,0,3.33,0,5q0,41.49,0,83Z" transform="translate(-170.43 -181.06)"/><path class="cls-1" d="M2733.23,861.74c-32.86.47-64.09-6.53-94-20.19-7.13-3.26-11.15-7.25-10-15.8.85-6.56.26-13.31.11-20-.08-3.57,1.3-5.18,4.84-6.23,11.37-3.38,17.55-1.68,25.46,7.7,3,3.57,6.05,7.1,9.19,10.55,11.9,13.07,26.84,20.67,44.08,23.62,15.19,2.6,30.47,3.14,45.76.41a70.08,70.08,0,0,0,21.65-7.3c19-10.4,24.38-28.21,14.29-47.49-4.88-9.32-12.15-16.61-20-23.44-19.24-16.78-41.57-28.82-63.6-41.28-13.34-7.54-26.85-14.77-39.47-23.52A136.21,136.21,0,0,1,2647.39,678c-15.08-16.82-16.69-34.79-6.85-55.58,7.1-15,18.72-25.77,33.6-33,39-18.88,79-19.06,119.57-5.89,7.27,2.36,14.26,5.59,21.48,8.13,4,1.41,5.76,3.61,5.72,8-.07,8,.37,16,.83,24,.24,4.18-1.18,6.24-5.59,6.12a74.36,74.36,0,0,0-10,.45c-4.76.52-8.29-1.38-11.47-4.75-5.71-6.06-11.43-12.13-17.49-17.83-24.65-23.19-57-18.81-77.54-9.63a36.32,36.32,0,0,0-14.58,11.87c-7.81,10.66-8.12,23.53-.92,34.59,4.1,6.3,9.75,10.9,15.88,15,21.11,14,43.44,26,65.66,38.11,17,9.28,33.41,19.38,47.75,32.59a100.2,100.2,0,0,1,19.2,24.16c14.7,25.73,9.55,57.6-12.57,78.63-16,15.25-35.62,22.93-57,26.84A146.62,146.62,0,0,1,2733.23,861.74Z" transform="translate(-170.43 -181.06)"/><path class="cls-1" d="M1851.6,738.94q0-53.49,0-107c0-9.26,0-9.37-9.26-9.38-26,0-52,0-78,0-9.32,0-9.38-.1-9.45-9.33-.06-8.33.13-16.67,0-25-.07-4.1,1.29-6.35,5.7-6,1.66.11,3.33,0,5,0h212c1,0,2,0,3,0,7.88.22,8,.22,8.09,7.67.13,8,.12,16,0,24-.09,8.5-.16,8.61-9.13,8.65-22.33.09-44.66.05-67,.09-5,0-10,.19-15,.15-3.71,0-5.59,1.5-5.38,5.36.11,2,0,4,0,6q.1,106,.2,212c0,2-.1,4,0,6,.17,3.84-1.65,5.29-5.41,5.25-10-.13-20-.19-30,0-4,.07-5.3-1.81-5.24-5.4.06-4,0-8,0-12q0-50.49,0-101Z" transform="translate(-170.43 -181.06)"/><path class="cls-1" d="M852.31,814.88c-3.69-2.12-5-4.13-1.63-7.54a34.08,34.08,0,0,0,2.51-3.11c37.95-48.19,38.78-120.12,2-169.58-39.36-52.89-109.54-73.08-172.76-49.71-58.68,21.7-94.29,72.29-94.47,133.72-.21,68.41,46.67,117.83,96.55,134.82,42.76,14.56,84.7,11.36,124.47-10.88,5.58-3.12,9.09-2.7,14,1a97.44,97.44,0,0,0,37.95,17.14c3.14.7,5.81,1.24,7.82-2.07,5.83-9.64,13-18.52,17.9-29.9C874.17,824.56,862.78,820.88,852.31,814.88Zm-33.15-32.69c-4.46,5.44-4.48,5.42-10.09,1.14-10.59-8.08-21-16.41-33.15-22.17a116.64,116.64,0,0,0-25.54-8.41c-3-.64-5.2-.28-6.82,2.46-6.08,10.26-12.18,20.51-19.11,32.16,23,.66,39.4,11.53,55.52,24.93-5.81,4.07-11.66,5.18-17.4,6.29-35.72,6.91-69.39,3-97.68-21.85-31.93-28-43.16-63.6-32.46-104.68,10.88-41.77,39-66.87,81.22-74.35,42.47-7.52,79.42,3.61,107,38.37C847,689.2,850.56,743.83,819.16,782.19Z" transform="translate(-170.43 -181.06)"/><path class="cls-1" d="M1460.46,852q-49.63-104.71-99.31-209.39c-9.14-19.25-18.49-38.4-27.71-57.61-1.3-2.7-2.14-5.76-6-5.76H1287c3.82,7.88,6.71,14.59,10.26,20.93,3.73,6.66,3.81,12.53.27,19.64-16.92,34-33.35,68.21-49.8,102.43q-30.3,63-60.3,126.2c-1.19,2.51-3.71,5-1.58,8.85,10,0,20.36-.48,30.63.17,6.93.44,11.25-1.49,13.74-8.1,4.45-11.79,13.8-18.09,25.13-22.6,19.82-7.89,40.51-10.82,61.57-11.26,24.32-.51,48.65-.07,73-.47,6-.1,8.93,2.18,11.32,7.35,4.61,10,10,19.56,14.78,29.46,2,4.19,4.74,5.77,9.37,5.56,7.32-.33,14.66,0,22-.06,4.76-.06,9.64.62,14.79-.65C1461.33,854.45,1461,853.17,1460.46,852Zm-94.2-77.06c-25.33-1.18-50.53-.66-75.47,4.63-9.36,2-18.39,5.11-29.54,8.47l60.56-127.13c5,5.06,53.23,101.35,56.87,113.42C1374.62,776.16,1370.35,775.14,1366.25,774.95Z" transform="translate(-170.43 -181.06)"/></g><g id="Snake_white"><path class="cls-1" d="M2579.22,654.64c-2.06-5.7-3.31-11.25-2.85-17.49,1.77-24.45-9.59-41.86-32.89-49.8-17.63-6-36.49-7.2-54.32-12.76-4.77-1.49-10.17,0-14.43,2.65-3.89,2.45-7.32,2.1-11.33.94-9.35-2.71-19-3.52-28.68-3.55-91-.31-153.06,79.39-140.73,163,10.09,68.43,69.75,125.87,146.31,125.1,72.73,1.23,132.09-52.51,146.33-118.61C2593.19,713.65,2589.75,683.78,2579.22,654.64Zm-111.56-30.47c6.39,10.88,17.16,18.53,22.11,30.6,2.27,5.53,7,9.81,12,13.16,7.09,4.75,10.73,11.56,13.16,19.36,14.61,46.92-15,87-46.05,100.39-62,26.72-120.85-24.28-118.9-81.44-.74-49.41,44.61-93.59,97.24-88.44a110.17,110.17,0,0,1,14.63,2.92C2464,621.25,2466.31,621.87,2467.66,624.17ZM2573,713.43c-.35,4-.16,8-.75,12-.48,3.16-.49,6.57-2.92,10-5-2.88-7.87-8-12.1-11.51-3.56-2.95-4.68-2.65-6.34,1.61-3.73,9.56-1.31,17.21,8.07,25.54,6.42,5.7,6.56,5.77,3.24,13-3,6.58-5.7,13.4-10.12,19.69-5.85-5.76-7-13.31-10.41-19.67-11.56,8.6-12.79,13.13-7.21,25.37,5.66,12.41,5.77,12.54-4.67,21.52-4.72,4.06-9.06,8.78-16,11.6-2.13-6.08-1.59-12-1.84-17.74-.22-5.12-1.5-5.86-6-3.77-5.14,2.39-8.77,6.08-9.58,11.9-.51,3.61-1.28,7.33-.94,10.9.77,8.11-3,12.25-10.4,14.54-5.7,1.76-11.29,3.78-17.79,4.56-2-5.78,1.83-10.16,3.37-15,1.59-5,.86-6.11-4.09-6.32-7.1-.3-12,2.72-15,9.2-.14.3-.25.62-.4.91-2.25,4.38-1.7,10.88-6,13.23-4.88,2.66-11.11.76-16.72.4-4.18-.27-8.31-1.26-12.81-2,1.93-6.44,7.94-8,10.74-12.42-8.69-7.8-14.17-8-22.32-.87-2,1.76-3.84,3.69-5.76,5.53s-3.83,2.38-6.33,1.18c-8.66-4.17-17.74-7.57-25.35-14.14,3.41-5.37,10.13-5,14.19-8.85-8.19-11.06-11.69-12.27-23.83-6.31-5.21,2.56-8.36,1.64-12-2.4A124.94,124.94,0,0,1,2328.45,783c4.52-2.57,9.4-1.77,13.5-3.44-4.11-12.15-5.09-13.21-16.75-13.71-4.39-.19-6.75-1.81-8.11-5.77a143.47,143.47,0,0,1-6-21c3.81-3.93,7.48.79,11.1-.05,2-11.8,1.62-13.28-8.13-18.52-3.83-2.06-5.33-4.36-5.1-8.55.28-5.23.17-10.47,1.94-15.3,4.3-.25,5.54,4.34,9.32,4.45,3.67-7.44,4.73-14.7-1.87-21-3.08-3-2.47-5.72-1.07-9,10.23-23.67,24.66-44.06,46-59.06.87-.61,2-2.28,3.17-.4a1.55,1.55,0,0,1,.1,1.5,35.61,35.61,0,0,1,24.15-12.86,2.73,2.73,0,0,0,.1-.26l.25.22-.35,0c-.7,1.73-3,2.48-3,4.85,8.31-.29,10.12-11.48,18.72-11.2,1.33,2.31-2.67,2.76-1.43,5.37,4,.52,6.83-2.41,10.21-4.13s7.15-5.56,11.5-1.34l-.2-.18c2.32,1.85,7-5.66,8.22,2.23.19,1.27,4.78,1.68,7.31,0,2.17-1.46,3.73-3.9,6.93-4.11,3.1,2.23-4,4.76,0,7.12,2.23,1.32,5.47.15,7.37,3.59-4.77-.3-9.16-.56-13.55-.86-50.87-3.48-97.78,32.65-108.09,87.09-12.29,64.84,38.63,125.23,104.49,122.55,67.49-2.75,109-68,92-125.36-1.72-5.8-4.19-11.15,2.26-16,2.7-2,2.45-6,1.41-9.37-.93-3.05-2.42-4.45-5.84-3.37-11.24,3.56-18.81-1.77-24.06-11-6-10.45-12.33-20.46-21-29a20,20,0,0,1-5.79-12.46c-1-9.57,3.66-13.92,13-11.89a31.19,31.19,0,0,1,4.78,1.43c8.15,3.2,16.69,4.6,25.34,5.3a63.48,63.48,0,0,1,19.33,4.71c12.87,5.36,20,16.21,18.53,30-.93,8.65.73,16.39,3.48,24.35,3.11,9,6.34,18.08,7.53,28.37-8-1.18-13.48-6.27-19.85-9.52-4.38,15.09,1.65,25.67,16.32,28.23C2572,706.54,2573.4,708.69,2573,713.43Z" transform="translate(-170.43 -181.06)"/><path class="cls-1" d="M2536.39,627.88c-9.07-2.44-17.71-4.44-19.06-15.3C2531.47,610.75,2536.35,614.51,2536.39,627.88Z" transform="translate(-170.43 -181.06)"/></g></g><g id="We_Know" data-name="We Know"><path class="cls-1" d="M588.91,944.85c16-2.62,15.94-2.61,19.55,12.34,3.54,14.7,7.21,29.38,12.61,44.11,3.23-11.75,6.49-23.49,9.68-35.26,1.48-5.46,3-10.93,4.19-16.45.93-4.28,3.11-6.35,7.62-5.83a24.51,24.51,0,0,0,6,0c4.94-.66,7.07,1.55,8.25,6.28,3.77,15.18,8,30.25,12,45.37.59,2.22.67,4.63,3.26,7,3-11.79,5.89-23.11,8.73-34.44.89-3.55,1.62-7.14,2.46-10.71,3.44-14.61,3.44-14.61,19.32-12.5,1.32,3-.11,5.78-.91,8.57-6.26,21.75-12.75,43.44-18.7,65.28-1.39,5.12-3.46,7.53-8.81,6.91a31.79,31.79,0,0,0-7,0c-4.65.49-6.12-1.83-7.25-6.07-4.25-16.06-9-32-13.62-48.18-2.79,2.09-3,4.84-3.65,7.33-3.67,13.49-7.56,26.93-10.86,40.51-1.17,4.8-3.23,6.36-8.11,6.38-13.22,0-13.29.3-16.89-12.35-5.56-19.54-11-39.1-16.51-58.65C589.38,951.3,588,948.22,588.91,944.85Z" transform="translate(-170.43 -181.06)"/><path class="cls-1" d="M1064.34,944.92c.78-.48,1.05-.79,1.35-.82,15-1.27,15-1.27,18.48,13.13,3.57,14.84,7.19,29.66,10.84,44.7,3.4-1.83,3.1-4.73,3.76-7.18,4.08-15.08,8.27-30.14,12.12-45.28,1.11-4.35,3.21-6.23,7.65-5.74a24.45,24.45,0,0,0,6,0c5-.69,7,1.74,8.18,6.37,3.78,15.16,8,30.22,11.91,45.34.59,2.23.88,4.53,3.33,7.16,4.23-16.72,8.33-32.6,12.25-48.53,2.57-10.46,2.46-10.5,12.72-10.28,1.63,0,3.26.18,4.87.28,1.92,3.26.52,6-.28,8.78-6.24,21.73-12.65,43.41-18.6,65.22-1.47,5.37-3.57,8.31-9.47,7.28a16.82,16.82,0,0,0-5,0c-5.31.69-7.51-1.82-8.83-6.83-4.15-15.72-8.79-31.31-13.31-47.21-3.05,1.69-3,4.46-3.62,6.83-3.89,13.75-7.94,27.47-11.56,41.3-1.12,4.27-3,5.89-7.48,6.07-13.47.53-13.45.71-17.23-12.76q-8.22-29.29-16.49-58.57C1065.1,951.27,1064.09,948.46,1064.34,944.92Z" transform="translate(-170.43 -181.06)"/><path class="cls-1" d="M905.45,974.38c0,5.17,0,10.68,0,16.19,0,9.31-.18,18.63,0,27.94.1,5.13-1.92,6.92-7.08,6.89-9.22-.06-9.4.15-9.42-9.28,0-21-.09-41.91.13-62.86,0-3.21-2.09-8.52,3.15-9s11.39-3,15.57,3.05q7.64,11.09,15.37,22.11c6.12,8.68,12.32,17.3,18.52,26,3.42-1.42,1.91-4.11,1.93-6.1.17-13,.06-25.94.25-38.91.1-6.57.6-6.79,9-6.62,7.4.15,7.58.15,7.6,7,.06,21.62.06,43.24-.12,64.86,0,3.29,2,8.45-3,9.21-5.22.79-11.44,2.74-15.62-3.08q-8.73-12.15-17.34-24.39c-5-7.08-9.8-14.24-14.73-21.34C908.89,975,908.23,973.71,905.45,974.38Z" transform="translate(-170.43 -181.06)"/><path class="cls-1" d="M1742.15,984.74c0,11.31.09,22.62,0,33.93-.07,6.67-.22,6.67-7.78,6.71-8.22,0-8.51-.1-8.66-7-.16-7.31-.21-14.64-.06-22,.1-4.71-1.89-6.53-6.56-6.39-7.64.23-15.3.14-22.95.09-3.75,0-5.37,1.69-5.33,5.45.07,8-.19,16,0,23.95.09,4.37-1.77,5.62-5.95,5.75-9.93.29-10.24.28-10.28-9.38q-.11-32.43,0-64.86c0-2.45-1.1-6.05,2.33-6.78,4.12-.87,8.64-1.42,12.61.62,1.91,1,1.23,3.61,1.26,5.54.08,6.65.22,13.31,0,20-.12,4.48,1.22,6.82,6.19,6.69,7.64-.19,15.3-.09,22.95.19,4.36.16,6-1.68,5.87-5.86-.16-7.32,0-14.64-.18-22-.09-4.26,1.75-5.65,6-5.77,10.3-.31,10.63-.2,10.62,10.13q0,13,0,25.95Q1742.14,982.25,1742.15,984.74Z" transform="translate(-170.43 -181.06)"/><path class="cls-1" d="M1283.39,983.08c0-11,.18-22-.08-33-.12-4.87,1.79-6.28,6.45-6.34,9.93-.14,10.22-.11,10.35,9.5q.13,9.49.18,19c0,3.25,1.5,4.91,4.82,4.9,8.33,0,16.65-.05,25,0,4.14,0,4.86-2.51,4.83-5.89-.05-7-.13-14,0-21,.15-6.31.4-6.39,8.17-6.41s8.2.17,8.22,6.43c.08,23-.12,46,0,68.95,0,4.87-1.82,6.25-6.44,6.31-9.83.14-10,.15-10-9.65,0-6.33-.25-12.67,0-19,.23-5.32-2.13-7-7.14-6.78-7,.26-14,.21-21,0-4.59-.14-6.68,1.46-6.53,6.32.22,7.32-.26,14.66,0,22,.16,5-1.43,7.11-6.79,7-9.17-.16-9.4,0-9.47-9.4-.09-11,0-22,0-33Z" transform="translate(-170.43 -181.06)"/><path class="cls-1" d="M875.85,1025.31c-5.46,0-11,.07-16.5,0-3.46-.06-5-2.89-6.93-5.16-6.16-7.43-12.18-15-18.47-22.31-2.07-2.41-3.61-5.57-8.25-7-.18,7.23-.37,14.06-.51,20.9-.06,2.66-.14,5.33,0,8,.26,4.48-2,5.92-6.11,5.58-1-.08-2,0-3,0-7.1-.19-7.28-.19-7.34-7.29-.12-16.65-.05-33.29-.06-49.94,0-5.33-.05-10.65,0-16,.09-8.27.12-8.27,8.27-8.31s8.26,0,8.3,8.24,0,16.56,0,24.69c3.76,1.37,4.61-1.47,6-3,6.61-7.48,13.43-14.82,19.51-22.72,4.32-5.61,9.27-8.18,16.21-7,2.49.43,5.2-.79,8.52,1.55L863.94,959c-5.19,6.08-10.42,12.11-15.54,18.25s-5.22,6.34-.26,12.28c7.89,9.46,16,18.73,23.9,28.18C873.63,1019.62,876.32,1021,875.85,1025.31Z" transform="translate(-170.43 -181.06)"/><path class="cls-1" d="M715.55,983.73c0-11,.13-21.95-.06-32.91-.09-5,1.49-7.19,6.85-7.05,12,.32,23.94.29,35.9.07,4.84-.09,6.45,1.78,6.3,6.45-.2,6.23-.37,6.78-6.69,6.92s-12.65.22-18.95-.1c-5.32-.27-6.71,2.1-6.83,7.06-.32,13.25-.52,13.24,12.64,13.32,3.66,0,7.33.24,11,0,5.52-.35,5.43,3.16,5.59,7.07.19,4.54-2,5.74-6,5.62-5.65-.16-11.31.1-17-.09-4.77-.16-6.49,2-6.37,6.6.49,18.15-.51,14.63,14.07,15,4.65.12,9.31.11,14,0,5.2-.08,4.56,3.6,4.6,6.9,0,3.49.07,6.7-5,6.66-12.63-.11-25.27-.12-37.9.1-5,.09-6.18-2.42-6.14-6.76.11-11.64,0-23.27,0-34.91Z" transform="translate(-170.43 -181.06)"/><path class="cls-1" d="M1368.41,984.82c0-11-.08-22,0-33,.08-7.86.2-8,7.58-8q16.48-.1,33,.13c7.37.09,7.75.55,7.69,6.9-.06,6.13-.27,6.33-8.14,6.5-5,.11-10,0-15,.11-8.49.16-8.48.19-8.67,9.11,0,.33,0,.67,0,1-.08,9.88-.08,9.89,9.73,9.92,4.33,0,8.67.15,13-.08,4.58-.24,6.64,1.26,6.44,6.25-.18,4.56-1.52,6.75-6.4,6.5-5.65-.29-11.32,0-17-.15-4.28-.13-5.93,1.74-5.85,6,.39,19-1.29,15.21,14.21,15.72,3.33.11,6.66,0,10,.07,7.67.16,9.08,2,7.91,9.56-.46,3-2,3.92-4.64,3.93-13,0-26,0-39,.18-4.08,0-5-2.15-5-5.66.06-11.65,0-23.31,0-35Z" transform="translate(-170.43 -181.06)"/><path class="cls-1" d="M1625.54,991.11c0-9.31-.09-18.63,0-27.94.06-4.27-1.75-6-6-5.79-3,.17-6,.06-9,0-6.44-.22-9.57-5.57-6.76-11.36.87-1.79,2.38-2.12,4.09-2.12,17,0,33.93.07,50.9,0,5.11,0,4.81,3.35,4.86,6.76s0,6.91-5,6.54a17.83,17.83,0,0,0-2,0c-14.37.57-14.37.57-14.32,15.42,0,14.64.14,29.27.11,43.91,0,9-.1,9-8.64,8.95-8.17-.06-8.21-.06-8.27-9.37-.05-8.32,0-16.63,0-24.95Z" transform="translate(-170.43 -181.06)"/><path class="cls-1" d="M1243.13,943.91c8,0,16,.24,23.93-.09,5.26-.22,5.93,2.53,6,6.76s-.89,7.24-6,6.73a3.92,3.92,0,0,0-1,0c-4.79.76-10.81-2.29-14.15,1.9-2.78,3.48-.94,9-1,13.59-.1,14.63.05,29.25,0,43.88,0,8.73-.09,8.73-7.81,8.73-8.08,0-8.18,0-8.22-8.36-.09-17,0-33.91-.11-50.86-.05-8.61-.17-8.62-8.88-8.77-2,0-4,0-6,0-6.91-.24-7.1-.76-7.31-7.4-.16-5,2.12-6.25,6.6-6.13,8,.21,16,.06,23.93.06Z" transform="translate(-170.43 -181.06)"/><path class="cls-1" d="M1015.35,942.6c-23.23.14-41.22,18-41.39,41-.18,24.23,17.88,42.42,42,42.36s40.86-16.7,40.94-40.69C1057,960.65,1039.3,942.46,1015.35,942.6Zm-.31,68.77c-13.73-.3-24.48-12.53-24.37-27.71.11-15.33,11-26.53,25.47-26.16,14.62.37,24.36,11.44,24.11,27.41C1040,1000.63,1029.46,1011.7,1015,1011.37Z" transform="translate(-170.43 -181.06)"/><path class="cls-1" d="M1599.11,1018.37c-8-21.49-15.9-43-24-64.46-3.87-10.28-4-10.23-14.77-10.13-8.11.07-8.15.05-11.13,8.14q-9.83,26.66-19.55,53.35c-2.25,6.2-5.25,12.15-6.7,20.19,4.25,0,7.58-.25,10.85.06,4.47.42,6.39-1.64,7.86-5.68,3.83-10.53,4-10.46,15.35-10.43,3.66,0,7.32,0,11,.05,12.57.14,10.81-.2,14,9.63.91,2.77,1.4,6.1,5.48,6s8.49.75,12.36-.56C1601,1021.93,1599.78,1020.2,1599.11,1018.37Zm-47-22.5c-1.08-2.43-.39-4,.16-5.5,3-8.34,6-16.67,9.75-27.2l11.1,31.45C1565.63,997.24,1558.63,995.28,1552.1,995.88Z" transform="translate(-170.43 -181.06)"/><path class="cls-1" d="M1520.43,966.09c-1.46-13.07-10.7-21.45-25.3-22.17-9.31-.46-18.66.06-28-.16-4.72-.11-6.46,1.66-6.36,6.41.24,11.33.08,22.66.08,34h.07c0,10.66-.05,21.33,0,32,.06,9.45.14,9.15,9.43,9.32,5.43.1,7-2.07,6.75-7.06-.24-4.32,0-8.66,0-13,.1-11.46-.35-11.18,10.76-11.28a70.12,70.12,0,0,0,12.93-1C1514.08,990.55,1521.93,979.48,1520.43,966.09Zm-27.16,14.48c-1,.13-2,.19-3,.25-13.29.78-13.38.69-13.28-12.39,0-2,0-4,0-6-.08-3.19,1.24-5,4.62-5a117.44,117.44,0,0,1,11.9.22c6.72.76,10.59,5.54,10.42,12.21C1503.79,976.13,1500.28,979.65,1493.28,980.57Z" transform="translate(-170.43 -181.06)"/></g></g><path id="Emblem_pink" class="cls-2" d="M423,971.06q0-88,.07-175.93,0-175.92-.13-351.84c0-45,.11-89.95.06-134.92,0-14,0-28-3-41.78-8.67-39.82-31.26-67.37-71.16-78.39A195.13,195.13,0,0,0,245.22,188c-35.26,9.42-58.37,31.65-68.69,67.17-5,17.23-6.07,34.66-6.07,52.36q0,420.88,0,841.76c0,13.34.41,26.64,2.8,39.81,7.28,40.08,27.81,70,65.94,86.67,3,1.29,6.59,1.53,9.39,5.65-30.71,41-57.66,84.66-71.58,136.21,14.34,0,27.63-.19,40.92.09,5.18.11,7.57-1.69,9.1-6.75,8.76-29,23-55.3,40-80.13,28.05-40.94,56.63-81.52,84.53-122.56,14.77-21.74,30-43.28,41.36-67.14,17-35.51,27.88-72.51,29.85-112.1C423.67,1009.65,423,990.37,423,971.06Zm-76.9,166.06c-12.35,21.82-27.15,41.92-41.21,62.55q-10.41,15.28-21.2,30.3c-5,7-6.93,7.47-15.23,5.25-28.81-7.7-45.23-26.56-50.27-55.73-2.85-16.5-2.89-33.19-2.9-49.83,0-49,.39-98,.44-147q.13-125,0-249.93h.05q0-204,0-407.93A277.66,277.66,0,0,1,218.31,284c4.47-30.16,23.75-49.93,53.84-54.93a154.43,154.43,0,0,1,51.67.06c26.34,4.5,45.89,23.27,51.2,49.55a195.38,195.38,0,0,1,4,38.68q.06,286.95.13,573.9c0,40-.36,80,.11,120C379.8,1056.33,368.26,1098,346.1,1137.12Z" transform="translate(-170.43 -181.06)"/></svg>